<svg width="14" height="14" viewBox="0 0 14 14" fill="none" xmlns="http://www.w3.org/2000/svg">
<g clip-path="url(#clip0_2263_210549)">
<path d="M7.47187 0.170849C7.16697 0.0604562 6.83303 0.0604562 6.52813 0.170849L1.91418 1.84142C1.36549 2.04008 1 2.56113 1 3.14467V7.60345C1 9.65517 1.875 10.9828 3.375 11.9483C4.30001 12.5437 5.53203 13.2252 6.37255 13.6721C6.76542 13.8809 7.23458 13.8809 7.62745 13.6721C8.46797 13.2252 9.69999 12.5437 10.625 11.9483C12.125 10.9828 13 9.65517 13 7.60345V3.14467C13 2.56113 12.6345 2.04008 12.0858 1.84142L7.47187 0.170849Z" fill="white"/>
<path d="M10.7041 4.9541L10.4775 5.55859L10.2559 6.15039H11.4658V7.44336H9.77051L9.0127 9.46289C8.91759 9.71627 8.67494 9.88438 8.4043 9.88281C8.13371 9.8812 7.89294 9.71047 7.80078 9.45605L6.98633 7.20801L6.14941 9.46191C6.05506 9.71521 5.81232 9.88333 5.54199 9.88281C5.27177 9.88209 5.03076 9.71262 4.9375 9.45898L4.19727 7.44336H2.50977V6.15039H3.72168L3.50293 5.55469L3.28027 4.94824L4.49316 4.50293L4.71582 5.10938L5.54688 7.37207L6.38965 5.10645L6.43164 5.01562C6.54515 4.81335 6.76094 4.68452 6.99805 4.68555C7.26905 4.68676 7.51031 4.85746 7.60254 5.1123L8.41797 7.36719L9.26758 5.10547L9.49414 4.5L10.7041 4.9541Z" fill="#3F3399"/>
</g>
<defs>
<clipPath id="clip0_2263_210549">
<rect width="14" height="14" fill="white"/>
</clipPath>
</defs>
</svg>
