<svg width="83" height="83" viewBox="0 0 83 83" fill="none" xmlns="http://www.w3.org/2000/svg">
<path fill-rule="evenodd" clip-rule="evenodd" d="M4.21484 22.7764V13.4551C4.21484 8.35998 8.36006 4.21484 13.4551 4.21484H22.7764C23.9402 4.21484 24.8838 3.27129 24.8838 2.10742C24.8838 0.943558 23.9402 0 22.7764 0H13.4551C6.03598 0 0 6.0359 0 13.4551V22.7764C0 23.9402 0.943558 24.8838 2.10742 24.8838C3.27129 24.8838 4.21484 23.9402 4.21484 22.7764ZM22.7764 78.7852C23.9402 78.7852 24.8838 79.7287 24.8838 80.8926C24.8838 82.0564 23.9402 83 22.7764 83H13.4551C6.03598 83 0 76.964 0 69.5449V60.2236C0 59.0598 0.943558 58.1162 2.10742 58.1162C3.27129 58.1162 4.21484 59.0598 4.21484 60.2236V69.5449C4.21484 74.6399 8.36006 78.7852 13.4551 78.7852H22.7764ZM83 60.2236V69.5449C83 76.964 76.964 83 69.5449 83H60.2236C59.0598 83 58.1162 82.0564 58.1162 80.8926C58.1162 79.7287 59.0598 78.7852 60.2236 78.7852H69.5449C74.6399 78.7852 78.7852 74.6399 78.7852 69.5449V60.2236C78.7852 59.0598 79.7287 58.1162 80.8926 58.1162C82.0564 58.1162 83 59.0598 83 60.2236ZM83 13.4551V22.7764C83 23.9402 82.0564 24.8838 80.8926 24.8838C79.7287 24.8838 78.7852 23.9402 78.7852 22.7764V13.4551C78.7852 8.35998 74.6399 4.21484 69.5449 4.21484H60.2236C59.0598 4.21484 58.1162 3.27129 58.1162 2.10742C58.1162 0.943558 59.0598 0 60.2236 0H69.5449C76.964 0 83 6.0359 83 13.4551ZM56.0434 61.3449C56.9312 60.5248 56.9861 59.1403 56.166 58.2524C55.3458 57.3645 53.9613 57.3096 53.0734 58.1297C49.9142 61.048 45.8039 62.6551 41.4998 62.6551C37.1957 62.6551 33.0854 61.048 29.9262 58.1297C29.0381 57.3096 27.6538 57.3646 26.8336 58.2524C26.0135 59.1403 26.0684 60.5248 26.9562 61.3449C30.9267 65.0123 36.0916 67.0321 41.4998 67.0321C46.908 67.0321 52.0729 65.0123 56.0434 61.3449ZM45.877 31.2871V46.8496C45.877 49.9335 43.3681 52.4424 40.2842 52.4424H38.501C37.2923 52.4424 36.3125 51.4626 36.3125 50.2539C36.3125 49.0452 37.2923 48.0654 38.501 48.0654H40.2842C40.9546 48.0654 41.5 47.52 41.5 46.8496V31.2871C41.5 30.0784 42.4798 29.0986 43.6885 29.0986C44.8972 29.0986 45.877 30.0784 45.877 31.2871ZM60.9531 37.4067V31.1655C60.9531 30.024 60.0277 29.0986 58.8862 29.0986C57.7447 29.0986 56.8193 30.024 56.8193 31.1655V37.4067C56.8193 38.5482 57.7447 39.4736 58.8862 39.4736C60.0277 39.4736 60.9531 38.5482 60.9531 37.4067ZM22.5332 37.4067C22.5332 38.5482 23.4586 39.4736 24.6001 39.4736C25.7416 39.4736 26.667 38.5482 26.667 37.4067V31.1655C26.667 30.024 25.7416 29.0986 24.6001 29.0986C23.4586 29.0986 22.5332 30.024 22.5332 31.1655V37.4067Z" fill="#2196F3"/>
</svg>
