<?xml version="1.0" encoding="UTF-8"?>
<svg id="Layer_1" data-name="Layer 1" xmlns="http://www.w3.org/2000/svg" version="1.1" xmlns:xlink="http://www.w3.org/1999/xlink" viewBox="0 0 49 48">
  <defs>
    <style>
      .cls-1 {
        fill: #000;
      }

      .cls-1, .cls-2 {
        stroke-width: 0px;
      }

      .cls-2 {
        fill: none;
      }

      .cls-3 {
        clip-path: url(#clippath);
      }

      .cls-4, .cls-5 {
        opacity: .9;
      }

      .cls-5 {
        display: none;
      }
    </style>
    <clipPath id="clippath">
      <rect class="cls-2" x=".5" width="48" height="48"/>
    </clipPath>
  </defs>
  <g class="cls-3">
    <g>
      <g class="cls-5">
        <g>
          <path class="cls-1" d="M21.3,22.5h-7.8l-1.7-1.7v-7.8l1.7-1.7h7.8l1.7,1.7v7.8l-1.7,1.7ZM15.1,19.1h4.5v-4.5h-4.5v4.5Z"/>
          <path class="cls-1" d="M21.3,36.7h-7.8l-1.7-1.7v-7.8l1.7-1.7h7.8l1.7,1.7v7.8l-1.7,1.7ZM15.1,33.4h4.5v-4.5h-4.5v4.5Z"/>
          <path class="cls-1" d="M35.6,22.5h-7.8l-1.7-1.7v-7.8l1.7-1.7h7.8l1.7,1.7v7.8l-1.7,1.7ZM29.4,19.1h4.5v-4.5h-4.5v4.5Z"/>
          <rect class="cls-1" x="26" y="25.5" width="3.5" height="3.3"/>
          <rect class="cls-1" x="26" y="33.4" width="3.5" height="3.3"/>
          <polygon class="cls-1" points="37.2 36.7 33.9 36.7 33.9 32.8 29.9 32.8 29.9 29.5 35.6 29.5 37.2 31.1 37.2 36.7"/>
        </g>
      </g>
      <g class="cls-5">
        <rect class="cls-1" x="11.9" y="22.3" width="25.2" height="3.3"/>
        <g>
          <g>
            <polygon class="cls-1" points="15.2 19.5 11.9 19.5 11.9 12.9 13.6 11.3 20.7 11.3 20.7 14.6 15.2 14.6 15.2 19.5"/>
            <polygon class="cls-1" points="37.1 19.5 33.8 19.5 33.8 14.6 28.3 14.6 28.3 11.3 35.4 11.3 37.1 12.9 37.1 19.5"/>
          </g>
          <g>
            <polygon class="cls-1" points="20.7 36.7 13.6 36.7 11.9 35.1 11.9 28.5 15.2 28.5 15.2 33.4 20.7 33.4 20.7 36.7"/>
            <polygon class="cls-1" points="35.4 36.7 28.3 36.7 28.3 33.4 33.8 33.4 33.8 28.5 37.1 28.5 37.1 35.1 35.4 36.7"/>
          </g>
        </g>
      </g>
      <g class="cls-5">
        <path class="cls-1" d="M15.6,27.7v-7.5h1.5l2.2,4,.7,1.6h0c0-.8-.2-1.8-.2-2.6v-3h1.4v7.5h-1.5l-2.2-4-.8-1.6h0c0,.8.2,1.7.2,2.6v3h-1.4ZM23.2,27.7v-7.5h4.6v1.2h-3.1v1.9h2.7v1.3h-2.7v3h-1.5ZM32,27.9c-1.9,0-3.4-1.4-3.4-3.8s1.6-3.9,3.5-3.9,1.7.5,2.2,1l-.8.9c-.4-.4-.8-.6-1.4-.6-1.1,0-2,1-2,2.6s.8,2.6,1.9,2.6,1.1-.3,1.5-.7l.8.9c-.6.7-1.4,1.1-2.4,1.1Z"/>
        <g>
          <path class="cls-1" d="M14.9,15.7v-3.2c0-1.8,1.5-3.3,3.3-3.3h13.4c1.8,0,3.3,1.5,3.3,3.3v3.2h3.6v-3.2c0-3.8-3.1-6.9-6.9-6.9h-13.4c-3.8,0-6.9,3.1-6.9,6.9v3.2h3.6Z"/>
          <path class="cls-1" d="M35,31.6v3.9c0,1.8-1.5,3.3-3.3,3.3h-13.4c-1.8,0-3.3-1.5-3.3-3.3v-3.9h-3.6v3.9c0,3.8,3.1,6.9,6.9,6.9h13.4c3.8,0,6.9-3.1,6.9-6.9v-3.9h-3.6Z"/>
          <path class="cls-1" d="M25,31.9c-1.4,0-2.5,1.1-2.5,2.5s1.1,2.5,2.5,2.5,2.5-1.1,2.5-2.5-1.1-2.5-2.5-2.5h0Z"/>
          <polygon class="cls-1" points="29.3 13.6 20.7 13.6 19 12.5 17 7.8 20.3 6.4 21.8 10 28.1 10 29.7 6.4 33 7.8 30.9 12.5 29.3 13.6"/>
        </g>
        <path class="cls-1" d="M7.3,33.7l-1.8,1.8-.9-.9C1.9,31.9.3,28.2.3,24.3s1.5-7.6,4.3-10.3l.9-.9,1.8,1.8-.9.9c-2.3,2.3-3.5,5.3-3.5,8.5s1.3,6.3,3.5,8.5l.9.9Z"/>
        <path class="cls-1" d="M10.1,30l-1.8,1.8-.9-.9c-1.8-1.8-2.7-4.1-2.7-6.6s1-4.8,2.7-6.6l.9-.9,1.8,1.8-.9.9c-1.3,1.3-2,3-2,4.8s.7,3.5,2,4.8l.9.9Z"/>
        <path class="cls-1" d="M41.7,14.8l1.8-1.8.9.9c2.8,2.8,4.3,6.4,4.3,10.3s-1.5,7.6-4.3,10.3l-.9.9-1.8-1.8.9-.9c2.3-2.3,3.5-5.3,3.5-8.5s-1.3-6.3-3.5-8.5l-.9-.9Z"/>
        <path class="cls-1" d="M38.9,18.6l1.8-1.8.9.9c1.8,1.8,2.7,4.1,2.7,6.6s-1,4.8-2.7,6.6l-.9.9-1.8-1.8.9-.9c1.3-1.3,2-3,2-4.8s-.7-3.5-2-4.8l-.9-.9Z"/>
      </g>
      <g class="cls-4">
        <path class="cls-1" d="M7.3,33.4l-1.8,1.8-.9-.9C1.9,31.6.3,27.9.3,24s1.5-7.6,4.3-10.3l.9-.9,1.8,1.8-.9.9c-2.3,2.3-3.5,5.3-3.5,8.5s1.3,6.3,3.5,8.5l.9.9Z"/>
        <path class="cls-1" d="M10.1,29.7l-1.8,1.8-.9-.9c-1.8-1.8-2.7-4.1-2.7-6.6s1-4.8,2.7-6.6l.9-.9,1.8,1.8-.9.9c-1.3,1.3-2,3-2,4.8s.7,3.5,2,4.8l.9.9Z"/>
        <path class="cls-1" d="M41.7,14.6l1.8-1.8.9.9c2.8,2.8,4.3,6.4,4.3,10.3s-1.5,7.6-4.3,10.3l-.9.9-1.8-1.8.9-.9c2.3-2.3,3.5-5.3,3.5-8.5s-1.3-6.3-3.5-8.5l-.9-.9Z"/>
        <path class="cls-1" d="M38.9,18.3l1.8-1.8.9.9c1.8,1.8,2.7,4.1,2.7,6.6s-1,4.8-2.7,6.6l-.9.9-1.8-1.8.9-.9c1.3-1.3,2-3,2-4.8s-.7-3.5-2-4.8l-.9-.9Z"/>
        <g>
          <g>
            <path class="cls-1" d="M31.3,42.5h-13.5c-3.8,0-6.9-3.1-6.9-6.9V12.5c0-3.8,3.1-6.9,6.9-6.9h13.5c3.8,0,6.9,3.1,6.9,6.9v23.1c0,3.8-3.1,6.9-6.9,6.9ZM17.7,9.1c-1.8,0-3.3,1.5-3.3,3.3v23.1c0,1.8,1.5,3.3,3.3,3.3h13.5c1.8,0,3.3-1.5,3.3-3.3V12.5c0-1.8-1.5-3.3-3.3-3.3h-13.5Z"/>
            <path class="cls-1" d="M24.5,30.2c-1.4,0-2.5,1.1-2.5,2.5s1.1,2.5,2.5,2.5,2.5-1.1,2.5-2.5-1.1-2.5-2.5-2.5h0Z"/>
            <polygon class="cls-1" points="28.9 13.5 20.1 13.5 18.5 12.4 16.4 7.7 19.8 6.2 21.3 9.9 27.7 9.9 29.2 6.2 32.6 7.7 30.5 12.4 28.9 13.5"/>
          </g>
          <g>
            <g>
              <rect class="cls-1" x="18.8" y="21.7" width="3.9" height="2.4"/>
              <rect class="cls-1" x="26.4" y="21.7" width="3.9" height="2.4"/>
            </g>
            <polygon class="cls-1" points="21.6 25.7 19.6 19.2 21.9 18.5 22.7 21.2 23.4 19.2 25.6 19.2 26.3 21.2 27.1 18.5 29.4 19.2 27.4 25.7 25.1 25.6 24.5 23.7 23.9 25.6 21.6 25.7"/>
          </g>
        </g>
      </g>
    </g>
  </g>
</svg>